<svg width="16" height="17" viewBox="0 0 16 17" fill="none" xmlns="http://www.w3.org/2000/svg">
<path d="M14.6473 12.5615C14.6473 12.8015 14.594 13.0481 14.4807 13.2881C14.3673 13.5281 14.2207 13.7548 14.0273 13.9681C13.7007 14.3281 13.3407 14.5881 12.934 14.7548C12.534 14.9215 12.1007 15.0081 11.634 15.0081C10.954 15.0081 10.2273 14.8481 9.46065 14.5215C8.69398 14.1948 7.92732 13.7548 7.16732 13.2015C6.40065 12.6415 5.67398 12.0215 4.98065 11.3348C4.29398 10.6415 3.67398 9.91481 3.12065 9.15481C2.57398 8.39481 2.13398 7.63481 1.81398 6.88147C1.49398 6.12147 1.33398 5.3948 1.33398 4.70147C1.33398 4.24814 1.41398 3.8148 1.57398 3.4148C1.73398 3.00814 1.98732 2.6348 2.34065 2.30147C2.76732 1.88147 3.23398 1.6748 3.72732 1.6748C3.91398 1.6748 4.10065 1.7148 4.26732 1.7948C4.44065 1.8748 4.59398 1.9948 4.71398 2.16814L6.26065 4.34814C6.38065 4.5148 6.46732 4.66814 6.52732 4.8148C6.58732 4.9548 6.62065 5.0948 6.62065 5.22147C6.62065 5.38147 6.57398 5.54147 6.48065 5.6948C6.39398 5.84814 6.26732 6.00814 6.10732 6.16814L5.60065 6.6948C5.52732 6.76814 5.49398 6.85481 5.49398 6.96147C5.49398 7.01481 5.50065 7.06147 5.51398 7.1148C5.53398 7.16814 5.55398 7.20814 5.56732 7.24814C5.68732 7.46814 5.89398 7.75481 6.18732 8.10147C6.48732 8.44814 6.80732 8.80147 7.15398 9.15481C7.51398 9.50814 7.86065 9.8348 8.21398 10.1348C8.56065 10.4281 8.84732 10.6281 9.07398 10.7481C9.10732 10.7615 9.14732 10.7815 9.19398 10.8015C9.24732 10.8215 9.30065 10.8281 9.36065 10.8281C9.47398 10.8281 9.56065 10.7881 9.63398 10.7148L10.1407 10.2148C10.3073 10.0481 10.4673 9.92147 10.6207 9.84147C10.774 9.74814 10.9273 9.70147 11.094 9.70147C11.2207 9.70147 11.354 9.72814 11.5007 9.78814C11.6473 9.84814 11.8007 9.93481 11.9673 10.0481L14.174 11.6148C14.3473 11.7348 14.4673 11.8748 14.5407 12.0415C14.6073 12.2081 14.6473 12.3748 14.6473 12.5615Z" stroke="#717A84" stroke-width="1.2" stroke-miterlimit="10"/>
</svg>
