<svg width="16" height="17" viewBox="0 0 16 17" fill="none" xmlns="http://www.w3.org/2000/svg">
<g clip-path="url(#clip0_4191_159427)">
<path d="M4.64863 9.4778C5.09827 9.4778 5.53289 9.44876 5.94417 9.3947V4.88678C5.53293 4.83275 5.09827 4.80371 4.64863 4.80371C2.08127 4.80371 0 5.74765 0 6.91211V7.36936C0 8.53378 2.08127 9.4778 4.64863 9.4778Z" fill="white"/>
<path d="M4.64863 11.8315C5.09827 11.8315 5.53289 11.8024 5.94417 11.7484V10.4271C5.53281 10.4811 5.09839 10.5106 4.64863 10.5106C2.4076 10.5106 0.53713 9.79127 0.0977687 8.83398C0.0337848 8.97343 0 9.11781 0 9.26582V9.72307C0 10.8875 2.08127 11.8315 4.64863 11.8315Z" fill="white"/>
<path d="M5.94417 12.8843V12.7816C5.53281 12.8356 5.09839 12.865 4.64863 12.865C2.4076 12.865 0.53713 12.1458 0.0977687 11.1885C0.0337848 11.3279 0 11.4723 0 11.6203V12.0775C0 13.242 2.08127 14.186 4.64863 14.186C5.16206 14.186 5.65588 14.1481 6.11767 14.0784C6.00321 13.8442 5.94417 13.5973 5.94417 13.3415V12.8843Z" fill="white"/>
<path d="M11.3518 1.23242C8.7844 1.23242 6.70312 2.17636 6.70312 3.34082V3.79807C6.70312 4.96253 8.7844 5.90647 11.3518 5.90647C13.9191 5.90647 16.0004 4.96253 16.0004 3.79807V3.34082C16.0004 2.17636 13.9191 1.23242 11.3518 1.23242Z" fill="white"/>
<path d="M11.3518 6.93927C9.11073 6.93927 7.24025 6.22002 6.80089 5.2627C6.73691 5.4021 6.70312 5.54648 6.70312 5.69453V6.15178C6.70312 7.31624 8.7844 8.26018 11.3518 8.26018C13.9191 8.26018 16.0004 7.31624 16.0004 6.15178V5.69453C16.0004 5.54648 15.9666 5.4021 15.9026 5.2627C15.4633 6.22002 13.5928 6.93927 11.3518 6.93927Z" fill="white"/>
<path d="M11.3518 9.29278C9.11073 9.29278 7.24025 8.5735 6.80089 7.61621C6.73691 7.75561 6.70312 7.89999 6.70312 8.04804V8.50529C6.70312 9.66979 8.7844 10.6137 11.3518 10.6137C13.9191 10.6137 16.0004 9.66979 16.0004 8.50529V8.04804C16.0004 7.89999 15.9666 7.75561 15.9026 7.61621C15.4633 8.57354 13.5928 9.29278 11.3518 9.29278Z" fill="white"/>
<path d="M11.3518 11.7752C9.11073 11.7752 7.24025 11.0559 6.80089 10.0986C6.73691 10.2381 6.70312 10.3824 6.70312 10.5304V10.9877C6.70312 12.1522 8.7844 13.0961 11.3518 13.0961C13.9191 13.0961 16.0004 12.1522 16.0004 10.9877V10.5304C16.0004 10.3824 15.9666 10.238 15.9026 10.0986C15.4633 11.0559 13.5928 11.7752 11.3518 11.7752Z" fill="white"/>
<path d="M11.3518 14.1287C9.11073 14.1287 7.24025 13.4095 6.80089 12.4522C6.73691 12.5916 6.70312 12.7361 6.70312 12.884V13.3412C6.70312 14.5057 8.7844 15.4496 11.3518 15.4496C13.9191 15.4496 16.0004 14.5057 16.0004 13.3412V12.8839C16.0004 12.7359 15.9666 12.5915 15.9026 12.4521C15.4633 13.4094 13.5928 14.1287 11.3518 14.1287Z" fill="white"/>
</g>
<defs>
<clipPath id="clip0_4191_159427">
<rect width="16" height="16" fill="white" transform="translate(0 0.341797)"/>
</clipPath>
</defs>
</svg>
