<svg width="16" height="16" viewBox="0 0 16 16" fill="none" xmlns="http://www.w3.org/2000/svg">
<path d="M11.6927 5.53977C12.5985 5.53977 13.3327 4.80551 13.3327 3.89977C13.3327 2.99402 12.5985 2.25977 11.6927 2.25977C10.787 2.25977 10.0527 2.99402 10.0527 3.89977C10.0527 4.80551 10.787 5.53977 11.6927 5.53977Z" stroke="#717A84" stroke-width="1.5" stroke-miterlimit="10" stroke-linecap="round" stroke-linejoin="round"/>
<path d="M4.30602 5.53977C5.21177 5.53977 5.94601 4.80551 5.94601 3.89977C5.94601 2.99402 5.21177 2.25977 4.30602 2.25977C3.40027 2.25977 2.66602 2.99402 2.66602 3.89977C2.66602 4.80551 3.40027 5.53977 4.30602 5.53977Z" stroke="#717A84" stroke-width="1.5" stroke-miterlimit="10" stroke-linecap="round" stroke-linejoin="round"/>
<path d="M11.6927 13.74C12.5985 13.74 13.3327 13.0057 13.3327 12.1C13.3327 11.1942 12.5985 10.46 11.6927 10.46C10.787 10.46 10.0527 11.1942 10.0527 12.1C10.0527 13.0057 10.787 13.74 11.6927 13.74Z" stroke="#717A84" stroke-width="1.5" stroke-miterlimit="10" stroke-linecap="round" stroke-linejoin="round"/>
<path d="M4.30602 13.74C5.21177 13.74 5.94601 13.0057 5.94601 12.1C5.94601 11.1942 5.21177 10.46 4.30602 10.46C3.40027 10.46 2.66602 11.1942 2.66602 12.1C2.66602 13.0057 3.40027 13.74 4.30602 13.74Z" stroke="#717A84" stroke-width="1.5" stroke-miterlimit="10" stroke-linecap="round" stroke-linejoin="round"/>
</svg>
