<svg width="16" height="17" viewBox="0 0 16 17" fill="none" xmlns="http://www.w3.org/2000/svg">
<path d="M11.334 12.6286H8.66732L5.70064 14.6019C5.26064 14.8953 4.66732 14.582 4.66732 14.0486V12.6286C2.66732 12.6286 1.33398 11.2953 1.33398 9.29529V5.29525C1.33398 3.29525 2.66732 1.96191 4.66732 1.96191H11.334C13.334 1.96191 14.6673 3.29525 14.6673 5.29525V9.29529C14.6673 11.2953 13.334 12.6286 11.334 12.6286Z" stroke="#717A84" stroke-width="1.2" stroke-miterlimit="10" stroke-linecap="round" stroke-linejoin="round"/>
<path d="M7.99923 7.91504V7.77507C7.99923 7.32173 8.27924 7.08172 8.55924 6.88839C8.83258 6.70172 9.10588 6.46173 9.10588 6.02173C9.10588 5.4084 8.61256 4.91504 7.99923 4.91504C7.38589 4.91504 6.89258 5.4084 6.89258 6.02173" stroke="#717A84" stroke-width="1.2" stroke-linecap="round" stroke-linejoin="round"/>
<path d="M7.99635 9.50814H8.00235" stroke="#717A84" stroke-width="1.5" stroke-linecap="round" stroke-linejoin="round"/>
</svg>
