<svg width="16" height="16" viewBox="0 0 16 16" fill="none" xmlns="http://www.w3.org/2000/svg">
<path d="M8.01242 1.93945C5.80575 1.93945 4.01242 3.73279 4.01242 5.93945V7.86612C4.01242 8.27279 3.83908 8.89279 3.63242 9.23945L2.86575 10.5128C2.39242 11.2995 2.71908 12.1728 3.58575 12.4661C6.45908 13.4261 9.55908 13.4261 12.4324 12.4661C13.2391 12.1995 13.5924 11.2461 13.1524 10.5128L12.3857 9.23945C12.1857 8.89279 12.0124 8.27279 12.0124 7.86612V5.93945C12.0124 3.73945 10.2124 1.93945 8.01242 1.93945Z" stroke="#515D68" stroke-width="1.2" stroke-miterlimit="10" stroke-linecap="round"/>
<path d="M9.24792 2.13297C9.04125 2.07297 8.82792 2.0263 8.60792 1.99964C7.96792 1.91964 7.35458 1.9663 6.78125 2.13297C6.97458 1.63964 7.45458 1.29297 8.01458 1.29297C8.57458 1.29297 9.05458 1.63964 9.24792 2.13297Z" stroke="#515D68" stroke-width="1.2" stroke-miterlimit="10" stroke-linecap="round" stroke-linejoin="round"/>
<path d="M10.0117 12.707C10.0117 13.807 9.11172 14.707 8.01172 14.707C7.46505 14.707 6.95838 14.4804 6.59838 14.1204C6.23838 13.7604 6.01172 13.2537 6.01172 12.707" stroke="#515D68" stroke-width="1.2" stroke-miterlimit="10"/>
</svg>
