<svg width="16" height="17" viewBox="0 0 16 17" fill="none" xmlns="http://www.w3.org/2000/svg">
<path d="M8 10.3413C9.10457 10.3413 10 9.44588 10 8.34131C10 7.23674 9.10457 6.34131 8 6.34131C6.89543 6.34131 6 7.23674 6 8.34131C6 9.44588 6.89543 10.3413 8 10.3413Z" stroke="currentColor" stroke-width="1.2" stroke-miterlimit="10" stroke-linecap="round" stroke-linejoin="round"/>
<path d="M1.33398 8.9281V7.75476C1.33398 7.06143 1.90065 6.4881 2.60065 6.4881C3.80732 6.4881 4.30065 5.63476 3.69398 4.5881C3.34732 3.9881 3.55398 3.2081 4.16065 2.86143L5.31398 2.20143C5.84065 1.8881 6.52065 2.07476 6.83398 2.60143L6.90732 2.7281C7.50732 3.77476 8.49398 3.77476 9.10065 2.7281L9.17398 2.60143C9.48732 2.07476 10.1673 1.8881 10.694 2.20143L11.8473 2.86143C12.454 3.2081 12.6607 3.9881 12.314 4.5881C11.7073 5.63476 12.2007 6.4881 13.4073 6.4881C14.1007 6.4881 14.674 7.05476 14.674 7.75476V8.9281C14.674 9.62143 14.1073 10.1948 13.4073 10.1948C12.2007 10.1948 11.7073 11.0481 12.314 12.0948C12.6607 12.7014 12.454 13.4748 11.8473 13.8214L10.694 14.4814C10.1673 14.7948 9.48732 14.6081 9.17398 14.0814L9.10065 13.9548C8.50065 12.9081 7.51398 12.9081 6.90732 13.9548L6.83398 14.0814C6.52065 14.6081 5.84065 14.7948 5.31398 14.4814L4.16065 13.8214C3.55398 13.4748 3.34732 12.6948 3.69398 12.0948C4.30065 11.0481 3.80732 10.1948 2.60065 10.1948C1.90065 10.1948 1.33398 9.62143 1.33398 8.9281Z" stroke="currentColor" stroke-width="1.2" stroke-miterlimit="10" stroke-linecap="round" stroke-linejoin="round"/>
</svg>
